<?xml version="1.0" standalone="no"?>
<!DOCTYPE svg PUBLIC "-//W3C//DTD SVG 20010904//EN"
 "http://www.w3.org/TR/2001/REC-SVG-20010904/DTD/svg10.dtd">
<svg version="1.0" xmlns="http://www.w3.org/2000/svg"
 width="947.000000pt" height="947.000000pt" viewBox="0 0 947.000000 947.000000"
 preserveAspectRatio="xMidYMid meet">
<metadata>
Created by potrace 1.11, written by Peter Selinger 2001-2013
</metadata>
<g transform="translate(0.000000,947.000000) scale(0.100000,-0.100000)"
fill="#000000" stroke="none">
<path d="M4897 8673 c-1 0 -36 -4 -77 -8 -210 -18 -372 -53 -595 -127 -190
-63 -477 -212 -641 -332 -23 -17 -54 -40 -70 -51 -152 -110 -352 -295 -506
-466 -29 -33 -60 -68 -69 -77 -67 -69 -219 -274 -318 -427 -39 -60 -74 -115
-78 -121 -20 -26 -163 -306 -202 -394 -69 -156 -64 -143 -127 -315 -4 -11 -8
-22 -9 -25 0 -3 -11 -34 -23 -70 -12 -36 -23 -69 -24 -75 -1 -5 -10 -37 -20
-70 -20 -64 -67 -243 -74 -285 -2 -14 -7 -36 -10 -50 -12 -51 -41 -212 -50
-280 -3 -19 -7 -46 -9 -60 -26 -180 -33 -255 -40 -445 -3 -82 -8 -157 -11
-165 -4 -10 -2 -12 5 -5 6 6 13 35 16 65 4 30 8 61 11 69 3 8 7 30 10 50 3 20
9 52 14 71 5 19 12 55 15 80 4 24 9 48 12 53 3 4 7 23 10 40 2 18 13 65 24
105 11 40 22 81 24 90 2 9 13 49 25 87 12 39 23 77 25 85 24 103 199 524 265
640 14 25 34 64 45 87 11 24 23 43 28 43 4 0 7 5 7 11 0 22 214 353 245 379 8
7 15 18 15 25 0 8 3 15 8 17 4 2 35 38 70 81 34 42 73 90 85 105 12 15 99 104
192 197 369 369 715 588 1160 736 22 8 45 14 50 15 6 0 30 7 55 14 55 17 45
14 105 25 53 9 63 11 68 14 1 2 13 4 27 6 14 2 45 6 70 10 142 20 449 26 585
12 90 -10 277 -40 313 -51 9 -3 31 -8 49 -11 18 -3 42 -9 55 -14 13 -5 26 -9
31 -9 4 0 33 -8 65 -17 193 -54 482 -186 652 -296 86 -56 228 -155 240 -169 3
-3 30 -25 60 -50 89 -72 271 -249 340 -330 11 -14 33 -38 48 -55 41 -44 145
-174 178 -221 16 -23 50 -72 77 -108 26 -37 47 -70 47 -74 0 -4 11 -19 25 -34
14 -15 25 -30 25 -33 0 -5 89 -158 130 -225 14 -22 145 -284 145 -290 0 -3 3
-9 7 -15 3 -5 28 -64 56 -130 48 -118 110 -290 121 -337 1 -4 9 -27 17 -50 15
-42 19 -56 29 -100 2 -12 11 -42 19 -67 9 -25 17 -57 20 -71 2 -14 9 -45 15
-70 7 -25 13 -54 15 -65 3 -11 9 -45 15 -75 6 -30 13 -68 16 -85 2 -16 7 -39
9 -50 7 -36 16 -99 22 -145 16 -135 25 -214 30 -270 6 -76 13 -238 14 -343 1
-95 9 -109 16 -30 3 26 7 62 9 78 20 127 28 778 12 935 -4 36 -10 94 -13 130
-3 36 -8 74 -10 85 -2 11 -6 38 -9 60 -7 59 -15 108 -20 135 -3 14 -9 50 -15
80 -5 30 -11 66 -14 79 -20 94 -43 182 -72 286 -19 66 -36 129 -39 140 -14 63
-123 351 -156 417 -11 21 -18 38 -15 38 5 0 -156 322 -200 399 -20 36 -56 95
-80 133 -24 37 -44 72 -44 77 0 5 -3 11 -7 13 -5 2 -30 37 -58 78 -27 41 -58
87 -70 101 -11 15 -29 39 -40 54 -29 41 -109 141 -163 205 -52 61 -288 299
-342 345 -301 256 -629 439 -965 540 -49 15 -96 29 -103 31 -7 2 -14 4 -17 4
-3 1 -19 5 -36 10 -18 5 -50 12 -73 16 -22 3 -43 7 -47 9 -5 4 -29 9 -99 20
-25 4 -57 8 -175 21 -51 5 -354 12 -358 7z"/>
<path d="M2378 7337 c-7 -8 -40 -44 -73 -82 -33 -37 -65 -73 -70 -79 -40 -43
-235 -322 -235 -336 0 -5 -4 -10 -10 -10 -5 0 -10 -4 -10 -8 0 -5 -25 -50 -55
-101 -100 -165 -218 -407 -300 -614 -77 -194 -176 -542 -211 -737 -2 -14 -7
-38 -11 -55 -10 -43 -11 -54 -18 -110 -4 -27 -10 -70 -15 -95 -4 -25 -8 -52
-8 -60 0 -8 -3 -31 -6 -50 -20 -143 -38 -465 -36 -650 1 -101 10 -371 14 -420
8 -92 24 -246 30 -280 3 -14 7 -47 11 -75 5 -44 13 -91 31 -190 5 -30 51 -237
58 -265 2 -8 9 -37 16 -65 6 -27 14 -57 17 -65 3 -8 7 -20 9 -27 9 -44 85
-266 125 -368 7 -16 13 -36 15 -44 1 -7 7 -18 13 -24 6 -6 11 -17 11 -23 0
-21 143 -319 188 -394 12 -19 26 -45 32 -58 5 -12 45 -77 87 -143 43 -67 83
-128 88 -137 23 -37 193 -261 244 -322 225 -267 456 -473 726 -648 521 -339
1179 -481 1785 -386 379 59 683 187 1101 465 322 214 452 329 644 570 37 46
73 92 81 102 8 9 14 20 14 23 0 3 7 12 15 20 47 47 253 413 318 564 56 130
125 368 141 485 3 22 10 69 15 105 11 76 11 393 0 430 -4 14 -15 63 -24 110
-9 47 -27 120 -41 162 -13 42 -24 83 -24 90 0 7 24 49 53 94 28 44 58 92 66
105 21 35 121 228 121 234 0 3 9 24 19 48 41 96 107 292 118 351 2 11 10 45
18 75 14 58 30 142 41 221 3 25 7 56 9 70 30 209 20 573 -22 750 -8 36 -17 77
-19 92 -3 15 -19 64 -35 110 -130 355 -363 582 -669 649 -28 6 -405 10 -990
11 -1052 1 -1008 3 -1138 -68 -80 -43 -78 -42 -181 -144 -171 -170 -322 -440
-376 -675 -24 -102 -25 -105 -31 -165 -3 -30 -7 -61 -9 -67 -3 -7 3 -13 13
-14 9 -1 560 -2 1223 -3 l1207 -1 21 -25 c20 -24 62 -105 76 -145 28 -82 37
-246 20 -375 -8 -64 -52 -221 -66 -234 -5 -6 -9 -16 -9 -24 0 -45 -140 -232
-213 -284 l-31 -22 -1205 -2 c-664 0 -1211 -2 -1217 -3 -6 0 -11 -7 -11 -13
-1 -20 -13 -99 -23 -143 -5 -22 -12 -62 -15 -90 -3 -27 -10 -72 -15 -100 -6
-27 -12 -68 -16 -90 -3 -22 -7 -51 -10 -65 -4 -25 -12 -71 -20 -125 -2 -16
-11 -66 -19 -110 -8 -44 -17 -100 -20 -125 -3 -25 -8 -52 -10 -60 -2 -8 -7
-35 -10 -60 -3 -25 -8 -52 -10 -60 -2 -8 -7 -35 -10 -60 -3 -25 -10 -67 -15
-95 -14 -75 -19 -106 -26 -155 -3 -25 -7 -52 -9 -60 -2 -8 -7 -31 -10 -50 -3
-19 -7 -46 -10 -60 -3 -14 -7 -41 -10 -60 -3 -19 -10 -60 -15 -90 -5 -30 -12
-73 -15 -95 -3 -22 -10 -62 -15 -90 -9 -47 -19 -113 -25 -162 -2 -11 -6 -29
-9 -40 -3 -10 -8 -38 -11 -63 -2 -25 -7 -55 -9 -66 -2 -12 -7 -37 -10 -55 -3
-19 -8 -43 -10 -55 -2 -12 -7 -45 -11 -75 -4 -30 -8 -56 -10 -59 -2 -3 -6 -30
-10 -60 -4 -30 -8 -57 -10 -60 -2 -3 -6 -27 -9 -55 -9 -66 -37 -219 -42 -224
-4 -5 -151 98 -239 167 -172 136 -344 305 -486 477 -98 119 -199 253 -199 264
0 5 -4 11 -8 13 -9 3 -126 181 -158 238 -10 19 -21 37 -24 40 -16 16 -137 252
-193 375 -57 128 -138 338 -181 470 -23 73 -83 291 -91 333 -1 9 -12 62 -24
117 -33 159 -51 277 -76 490 -6 45 -16 182 -20 255 -4 77 -5 531 -1 610 4 75
16 209 21 240 2 14 7 52 10 85 9 87 14 127 20 155 2 14 7 39 10 56 14 85 64
324 70 334 2 4 6 20 9 36 19 106 149 489 216 639 13 28 24 55 26 60 15 60 218
434 320 588 25 38 26 47 2 24z m3728 -4403 c26 -22 61 -64 78 -94 29 -52 31
-61 31 -160 -1 -88 -5 -119 -30 -192 -16 -49 -32 -88 -37 -88 -4 0 -8 -5 -8
-11 0 -28 -121 -189 -209 -278 -138 -140 -275 -233 -377 -257 -29 -6 -1183
-14 -1196 -7 -3 2 -3 18 2 36 5 17 11 48 13 67 3 19 17 107 32 194 15 87 28
171 30 185 2 14 4 26 5 26 1 0 3 14 5 30 4 27 14 91 30 180 3 17 8 46 11 65 2
19 8 58 14 85 5 28 12 66 14 85 3 19 7 44 10 55 2 11 7 40 11 65 4 25 11 47
15 50 5 3 346 5 759 4 l751 0 46 -40z"/>
</g>
</svg>
